<svg xmlns:inkscape="http://www.inkscape.org/namespaces/inkscape" xmlns:sodipodi="http://sodipodi.sourceforge.net/DTD/sodipodi-0.dtd" xmlns="http://www.w3.org/2000/svg" xmlns:svg="http://www.w3.org/2000/svg" id="Layer_1" data-name="Layer 1" viewBox="0 0 310 268" version="1.1" sodipodi:docname="logo001.svg" inkscape:version="1.1-alpha (2a16015, 2021-02-21)">
  <defs id="defs45"/>
  <sodipodi:namedview id="namedview43" pagecolor="#ffffff" bordercolor="#666666" borderopacity="1.0" objecttolerance="10.0" gridtolerance="10.0" guidetolerance="10.0" inkscape:pageshadow="2" inkscape:pageopacity="0.0" inkscape:pagecheckerboard="0" showgrid="false" inkscape:zoom="2.9216418" inkscape:cx="87.45083" inkscape:cy="134" inkscape:window-width="1920" inkscape:window-height="1001" inkscape:window-x="-9" inkscape:window-y="-9" inkscape:window-maximized="1" inkscape:current-layer="Layer_1" inkscape:snap-grids="false" inkscape:snap-to-guides="false"/>
  <path style="color:#000000;opacity:0.5;fill:#fefefe;-inkscape-stroke:none" d="m 67.87,104 1,1.3 -45,67.44 c 18.32,0 36.12,0.5 53.87,-0.16 14.17,-0.52 24.27,-10.13 26.79,-23.84 -4.27,-0.67 -7.06,1.17 -9.64,4.47 -2.7,3.46 -5.54,7.52 -9.28,9.29 -8.09,3.85 -17,2.33 -26.26,2.2 1.15,-1.84 1.83,-3 2.55,-4.06 12.82,-19.56667 25.63,-39.14 38.43,-58.72 0.83,-1.27 1,-2.91 1.56,-4.38 -1.48,-0.5 -3,-1.41 -4.43,-1.42 -20.31,-0.07 -40.62,0 -60.94,0 H 32.13 V 121 c 5,-0.58 7.59,-2.9 8.82,-7 1.48,-5 4.5,-8.52 10,-9 5.5,-0.48 11.29,-0.64 16.92,-1 z m 106.67,68.43 c 15,1.35 27.66,-6.78 29.23,-19.52 1.81,-14.72 -2.35,-27.69 -15.2,-36.12 -16.92,-11.1 -35.11,-11.76 -53.11,-3 -11.43,5.54 -19,15 -21.05,28 -1.66,10.54 -1.6,20.81 8.85,27.56 7,4.53 14.78,3.5 22.84,3.26 -0.47,-1.22 -0.75,-2 -1,-2.7 -5.34,-13.07 -5.78,-26.52 -2.72,-40.12 1.84,-8.22 7,-12.76 14.22,-13.07 7.52,-0.32 13.37,4.33 16.9,13.75 5.14,13.8 4.97,27.85 1.04,41.98 z m 64.37,-27.54 c 15.94,0 31.23,-0.14 46.52,0.08 4.84,0.07 6.47,-1.92 6.57,-6.47 0.28,-12.49 -5.54,-22 -16.72,-26.93 -27.76,-12.17 -59.63,8.93 -59.21,39.21 0.15,10.9 7.64,20 18.49,21.3 5.93,0.73 12,0.13 18.59,0.13 -9.52,-6.68 -13.76,-15.73 -14.24,-27.3 z m 17.8,-43.57 c 4.09,0.4 13.11,-11.42 16.42,-21 l -9.35,-0.5 c -2.39,7.3 -4.65,14.18 -7.07,21.52 z" id="path28" sodipodi:nodetypes="ccccccccccccscccscccscccccccccccccccccccccccc"/>
  <path style="color:#000000;opacity:1;mix-blend-mode:color;fill:#000000;fill-opacity:1;fill-rule:evenodd;stroke: red;stroke-opacity: 6;stroke-width:3;stroke-miterlimit:4;stroke-dasharray:none;" d="m 67.87,104 c -5.63,0.34 -11.26,0.6 -16.88,1 -5.62,0.4 -8.56,4 -10,9 -1.23,4.11 -3.77,6.43 -8.82,7 V 96.15 h 4.39 c 20.32,0 40.63,-0.08 60.94,0 1.48,0 3,0.92 4.43,1.42 -0.51,1.47 -0.73,3.11 -1.56,4.38 q -19.14,29.4 -38.43,58.72 c -0.72,1.09 -1.4,2.22 -2.55,4.06 9.25,0.13 18.17,1.65 26.26,-2.2 3.74,-1.77 6.58,-5.83 9.28,-9.29 2.58,-3.3 5.37,-5.14 9.64,-4.47 -2.57,13.7 -12.66,23.31 -26.83,23.83 -17.75,0.66 -35.55,0.16 -53.87,0.16 l 45.05,-67.44 z" id="path30"/>
  <path style="color:#000000;opacity:1;mix-blend-mode:color;fill:#100f0f;fill-opacity:1;stroke: red;stroke-width: 6;stroke-miterlimit:4;stroke-dasharray:none;stroke-opacity:1;" d="m 174.54,172.45 c 3.93,-14.13 4.1,-28.18 -1.09,-42 -3.53,-9.42 -9.38,-14.07 -16.9,-13.75 -7.17,0.31 -12.38,4.85 -14.22,13.07 -3.06,13.6 -2.62,27.05 2.72,40.12 0.3,0.73 0.58,1.48 1,2.7 -8.06,0.24 -15.82,1.27 -22.84,-3.26 -10.45,-6.75 -10.51,-17 -8.85,-27.56 2,-12.94 9.62,-22.42 21.05,-28 18,-8.71 36.19,-8.05 53.11,3 12.85,8.43 17,21.4 15.2,36.12 -1.52,12.78 -14.23,20.91 -29.18,19.56 z" id="path32"/>
  <path style="color:#000000;opacity:1;mix-blend-mode:color;fill:#121010;fill-opacity:1;stroke: red;stroke-width: 6;stroke-linecap:square;stroke-miterlimit:4;stroke-dasharray:none;stroke-opacity:1;" d="m 238.91,144.91 c 0.48,11.57 4.72,20.62 14.24,27.32 -6.56,0 -12.66,0.6 -18.59,-0.13 -10.85,-1.33 -18.34,-10.4 -18.49,-21.3 -0.42,-30.28 31.45,-51.38 59.21,-39.21 11.18,4.9 17,14.44 16.72,26.93 -0.1,4.55 -1.73,6.54 -6.57,6.47 -15.29,-0.22 -30.58,-0.08 -46.52,-0.08 z m 1.41,-8.58 c 1.27,0.07 2.54,0.19 3.81,0.19 7,0 13.94,0.14 20.89,-0.17 a 5.22,5.22 0 0 0 3.81,-3 c 2,-7.21 -4,-15.09 -11.48,-15.48 -8.84,-0.44 -16.02,7.21 -17.03,18.46 z" id="path34"/>
  <path style="color:#000000;opacity:1;mix-blend-mode:color;fill:#000000;fill-opacity:1;stroke:#000000;stroke-opacity:1;stroke-width:3;stroke-miterlimit:4;stroke-dasharray:none" d="m 256.71,101.34 c 2.42,-7.34 4.68,-14.22 7.07,-21.49 l 9.35,0.5 c -3.31,9.57 -12.33,21.39 -16.42,20.99 z" id="path36"/>
  <path style="color:#000000;fill:#f0f0f0;opacity:1;stroke:#100f0f;stroke-opacity:1;stroke-width:2;stroke-miterlimit:4;stroke-dasharray:none" d="m 240.32,136.33 c 1,-11.25 8.19,-18.9 17,-18.43 7.5,0.39 13.51,8.27 11.48,15.48 a 5.22,5.22 0 0 1 -3.81,3 c -6.95,0.31 -13.92,0.18 -20.89,0.17 -1.24,-0.03 -2.51,-0.15 -3.78,-0.22 z" id="path38"/>
</svg>