<svg xmlns="http://www.w3.org/2000/svg" width="19.89" height="18.249" viewBox="0 0 19.89 18.249">
  <path id="favarit" d="M17.42,4.5a5.955,5.955,0,0,0-4.475,2.078A5.955,5.955,0,0,0,8.47,4.5,5.417,5.417,0,0,0,3,9.97c0,3.759,3.381,6.822,8.5,11.476l1.442,1.3,1.442-1.313c5.122-4.644,8.5-7.707,8.5-11.467A5.417,5.417,0,0,0,17.42,4.5ZM13.044,19.964l-.1.1-.1-.1C8.112,15.678,4.989,12.844,4.989,9.97A3.4,3.4,0,0,1,8.47,6.489a3.888,3.888,0,0,1,3.55,2.347h1.86a3.863,3.863,0,0,1,3.54-2.347A3.4,3.4,0,0,1,20.9,9.97C20.9,12.844,17.778,15.678,13.044,19.964Z" transform="translate(-3 -4.5)" fill="#ea3a3c"/>
</svg>
