<svg xmlns="http://www.w3.org/2000/svg" width="21.062" height="21.062" viewBox="0 0 21.062 21.062">
  <path id="helpcenter" d="M12.478,19.85h2.106V17.744H12.478ZM13.531,3A10.531,10.531,0,1,0,24.062,13.531,10.535,10.535,0,0,0,13.531,3Zm0,18.956a8.425,8.425,0,1,1,8.425-8.425A8.436,8.436,0,0,1,13.531,21.956Zm0-14.744a4.211,4.211,0,0,0-4.212,4.212h2.106a2.106,2.106,0,1,1,4.212,0c0,2.106-3.159,1.843-3.159,5.266h2.106c0-2.37,3.159-2.633,3.159-5.266A4.211,4.211,0,0,0,13.531,7.212Z" transform="translate(-3 -3)" fill="#ea3a3c"/>
</svg>
