<svg id="Layer_1" data-name="Layer 1" xmlns="http://www.w3.org/2000/svg" viewBox="0 0 310 268"><g style="opacity:0.5"><path d="M0,268V0H310V268ZM67.87,104l1,1.3-45,67.44c18.32,0,36.12.5,53.87-.16,14.17-.52,24.27-10.13,26.79-23.84-4.27-.67-7.06,1.17-9.64,4.47-2.7,3.46-5.54,7.52-9.28,9.29-8.09,3.85-17,2.33-26.26,2.2,1.15-1.84,1.83-3,2.55-4.06q19.23-29.35,38.43-58.72c.83-1.27,1-2.91,1.56-4.38-1.48-.5-3-1.41-4.43-1.42-20.31-.07-40.62,0-60.94,0H32.13V121c5-.58,7.59-2.9,8.82-7,1.48-5,4.5-8.52,10-9S62.24,104.36,67.87,104Zm106.67,68.43c15,1.35,27.66-6.78,29.23-19.52,1.81-14.72-2.35-27.69-15.2-36.12-16.92-11.1-35.11-11.76-53.11-3-11.43,5.54-19,15-21.05,28-1.66,10.54-1.6,20.81,8.85,27.56,7,4.53,14.78,3.5,22.84,3.26-.47-1.22-.75-2-1-2.7-5.34-13.07-5.78-26.52-2.72-40.12,1.84-8.22,7-12.76,14.22-13.07,7.52-.32,13.37,4.33,16.9,13.75C178.64,144.27,178.47,158.32,174.54,172.45Zm64.37-27.54c15.94,0,31.23-.14,46.52.08,4.84.07,6.47-1.92,6.57-6.47.28-12.49-5.54-22-16.72-26.93-27.76-12.17-59.63,8.93-59.21,39.21.15,10.9,7.64,20,18.49,21.3,5.93.73,12,.13,18.59.13C243.63,165.53,239.39,156.48,238.91,144.91Zm17.8-43.57c4.09.4,13.11-11.42,16.42-21l-9.35-.5C261.39,87.12,259.13,94,256.71,101.34Z" style="fill:#fefefe"/><path d="M67.87,104c-5.63.34-11.26.6-16.88,1s-8.56,4-10,9c-1.23,4.11-3.77,6.43-8.82,7V96.15h4.39c20.32,0,40.63-.08,60.94,0,1.48,0,3,.92,4.43,1.42-.51,1.47-.73,3.11-1.56,4.38q-19.14,29.4-38.43,58.72c-.72,1.09-1.4,2.22-2.55,4.06,9.25.13,18.17,1.65,26.26-2.2,3.74-1.77,6.58-5.83,9.28-9.29,2.58-3.3,5.37-5.14,9.64-4.47C102,162.47,91.91,172.08,77.74,172.6c-17.75.66-35.55.16-53.87.16l45.05-67.44Z" style="fill:#141313"/><path d="M174.54,172.45c3.93-14.13,4.1-28.18-1.09-42-3.53-9.42-9.38-14.07-16.9-13.75-7.17.31-12.38,4.85-14.22,13.07-3.06,13.6-2.62,27.05,2.72,40.12.3.73.58,1.48,1,2.7-8.06.24-15.82,1.27-22.84-3.26-10.45-6.75-10.51-17-8.85-27.56,2-12.94,9.62-22.42,21.05-28,18-8.71,36.19-8.05,53.11,3,12.85,8.43,17,21.4,15.2,36.12C202.2,165.67,189.49,173.8,174.54,172.45Z" style="fill:#100f0f"/><path d="M238.91,144.91c.48,11.57,4.72,20.62,14.24,27.32-6.56,0-12.66.6-18.59-.13-10.85-1.33-18.34-10.4-18.49-21.3-.42-30.28,31.45-51.38,59.21-39.21,11.18,4.9,17,14.44,16.72,26.93-.1,4.55-1.73,6.54-6.57,6.47C270.14,144.77,254.85,144.91,238.91,144.91Zm1.41-8.58c1.27.07,2.54.19,3.81.19,7,0,13.94.14,20.89-.17a5.22,5.22,0,0,0,3.81-3c2-7.21-4-15.09-11.48-15.48C248.51,117.43,241.33,125.08,240.32,136.33Z" style="fill:#121010"/><path d="M256.71,101.34c2.42-7.34,4.68-14.22,7.07-21.49l9.35.5C269.82,89.92,260.8,101.74,256.71,101.34Z" style="fill:#201e1e"/><path d="M240.32,136.33c1-11.25,8.19-18.9,17-18.43,7.5.39,13.51,8.27,11.48,15.48a5.22,5.22,0,0,1-3.81,3c-6.95.31-13.92.18-20.89.17C242.86,136.52,241.59,136.4,240.32,136.33Z" style="fill:#f0f0f0"/></g></svg>