<svg xmlns="http://www.w3.org/2000/svg" width="22.063" height="17.334" viewBox="0 0 22.063 17.334">
  <path id="signout" d="M17.926,21.479h-3.62a.526.526,0,0,1-.517-.531V19.18a.526.526,0,0,1,.517-.531h3.62A1.4,1.4,0,0,0,19.3,17.234V8.745A1.4,1.4,0,0,0,17.926,7.33h-3.62a.526.526,0,0,1-.517-.531V5.031a.526.526,0,0,1,.517-.531h3.62a4.193,4.193,0,0,1,4.137,4.245v8.489A4.193,4.193,0,0,1,17.926,21.479ZM15.9,12.591,8.661,5.163a1.033,1.033,0,0,0-1.767.752V10.16H1.034A1.045,1.045,0,0,0,0,11.221v4.245a1.045,1.045,0,0,0,1.034,1.061h5.86v4.245a1.033,1.033,0,0,0,1.767.752L15.9,14.095A1.09,1.09,0,0,0,15.9,12.591Z" transform="translate(0 -4.5)" fill="#ea3a3c"/>
</svg>
