<svg id="Capa_1" enable-background="new 0 0 510.752 510.752" height="512" viewBox="0 0 510.752 510.752" width="512" xmlns="http://www.w3.org/2000/svg"><g><circle cx="435.128" cy="129.908" r="15"/><path d="m251.715 130.605c-2.422-7.922 2.037-16.308 9.959-18.73s16.308 2.037 18.73 9.959-2.037 16.308-9.959 18.73-16.308-2.037-18.73-9.959z"/><ellipse cx="127.959" cy="223.819" rx="15" ry="15" transform="matrix(.989 -.148 .148 .989 -31.677 21.372)"/><path d="m75 459.421h265.666c32.433 1.842 63.606-17.7 74.983-49.828l90.796-256.398c13.805-38.983-6.68-81.929-45.663-95.734s-81.929 6.68-95.734 45.663l-14.825 41.864-12.442-40.696c-12.091-39.548-54.103-61.885-93.651-49.795-19.158 5.858-34.888 18.824-44.293 36.513-9.404 17.686-11.359 37.98-5.502 57.139l12.442 40.695-34.207-25.314c-16.104-11.916-35.884-16.848-55.697-13.887s-37.287 13.461-49.204 29.564c-24.599 33.244-17.566 80.303 15.678 104.902l34.208 25.312h-42.554c-41.356.001-75 33.649-75 75-.001 41.355 33.644 75 74.999 75zm146.525-222.347 44.237 144.694-164.57-121.775c-19.946-14.759-24.167-42.993-9.407-62.941 7.15-9.662 17.634-15.962 29.522-17.739s23.756 1.182 33.418 8.332zm111.864-44.545-50.507 142.628-59.856-195.781c-3.515-11.495-2.341-23.671 3.301-34.283 5.643-10.613 15.082-18.393 26.576-21.907 23.729-7.254 48.936 6.148 56.191 29.877zm-3.459 234.447c-6.741-2.387-9.711-4.84-14.37-8.358-13.486-11.665-19.434-30.991-13.028-49.082l90.796-256.398c8.283-23.39 34.05-35.68 57.44-27.398 23.39 8.283 35.68 34.05 27.398 57.44l-90.796 256.398c-8.322 23.503-34.201 35.627-57.44 27.398zm-299.93-42.555c-.001-24.817 20.188-44.999 45-45h83.096l121.628 90h-204.725c-24.812 0-44.999-20.187-44.999-45z"/><path d="m60 384.421c0-8.284 6.716-15 15-15s15 6.716 15 15-6.716 15-15 15-15-6.716-15-15z"/><circle cx="344.952" cy="384.557" r="15"/></g></svg>