<svg xmlns="http://www.w3.org/2000/svg" width="21.354" height="21.1" viewBox="0 0 21.354 21.1">
  <path id="home" d="M20.642,9l0,0L12.2.558a1.905,1.905,0,0,0-2.7,0L1.062,9l-.009.009a1.9,1.9,0,0,0,1.268,3.247l.059,0h.336v6.214a2.233,2.233,0,0,0,2.23,2.23h3.3a.606.606,0,0,0,.606-.606V15.221A1.019,1.019,0,0,1,9.875,14.2h1.949a1.019,1.019,0,0,1,1.018,1.018v4.872a.606.606,0,0,0,.606.606h3.3a2.233,2.233,0,0,0,2.23-2.23V12.255h.312A1.906,1.906,0,0,0,20.642,9Zm-.859,1.836a.688.688,0,0,1-.49.2h-.919a.606.606,0,0,0-.606.606v6.82a1.019,1.019,0,0,1-1.018,1.017h-2.7V15.221a2.233,2.233,0,0,0-2.23-2.23H9.875a2.233,2.233,0,0,0-2.231,2.23v4.265h-2.7a1.019,1.019,0,0,1-1.018-1.017v-6.82a.606.606,0,0,0-.606-.606H2.392a.692.692,0,0,1-.477-1.182h0l8.444-8.443a.692.692,0,0,1,.979,0L19.78,9.857l0,0a.694.694,0,0,1,0,.979Zm0,0" transform="translate(-0.172 0.201)" fill="#fff" stroke="#ea3a3c" stroke-width="0.4"/>
</svg>
