<svg xmlns="http://www.w3.org/2000/svg" width="22.325" height="19.629" viewBox="0 0 22.325 19.629">
  <path id="shopping-basket" d="M21.925,36.558H18.2L14.29,30.039a.685.685,0,1,0-1.175.705L16.6,36.558H5.321l3.488-5.814a.685.685,0,0,0-1.175-.705L3.723,36.558H0v1.37H1.487l1.741,9.285A2.056,2.056,0,0,0,5.248,48.89H16.676a2.055,2.055,0,0,0,2.02-1.677l1.741-9.286h1.487S21.925,36.558,21.925,36.558Zm-4.575,10.4a.684.684,0,0,1-.673.559H5.248a.685.685,0,0,1-.674-.559L2.881,37.928H19.044L17.35,46.961Z" transform="translate(0.2 -29.462)" fill="#ea3a3c" stroke="#fff" stroke-width="0.4"/>
</svg>
