<svg xmlns="http://www.w3.org/2000/svg" width="16.373" height="19.565" viewBox="0 0 16.373 19.565">
  <g id="user_1_" data-name="user (1)" transform="translate(0.15 0.15)">
    <path id="Path_1221" data-name="Path 1221" d="M91.672,9.28a4.49,4.49,0,0,0,3.281-1.359A4.49,4.49,0,0,0,96.312,4.64a4.49,4.49,0,0,0-1.359-3.281,4.639,4.639,0,0,0-6.562,0A4.49,4.49,0,0,0,87.032,4.64a4.49,4.49,0,0,0,1.359,3.281A4.491,4.491,0,0,0,91.672,9.28ZM89.19,2.158a3.51,3.51,0,0,1,4.965,0A3.355,3.355,0,0,1,95.183,4.64a3.355,3.355,0,0,1-1.029,2.483,3.51,3.51,0,0,1-4.965,0A3.354,3.354,0,0,1,88.161,4.64,3.354,3.354,0,0,1,89.19,2.158Zm0,0" transform="translate(-83.757 0)" fill="#ea3a3c" stroke="#fff" stroke-width="0.3"/>
    <path id="Path_1222" data-name="Path 1222" d="M16.034,252.824a11.462,11.462,0,0,0-.156-1.217,9.592,9.592,0,0,0-.3-1.224,6.046,6.046,0,0,0-.5-1.141,4.3,4.3,0,0,0-.759-.989,3.345,3.345,0,0,0-1.09-.685,3.766,3.766,0,0,0-1.391-.252,1.412,1.412,0,0,0-.754.32c-.226.147-.49.318-.786.507a4.5,4.5,0,0,1-1.017.448,3.947,3.947,0,0,1-2.487,0,4.487,4.487,0,0,1-1.016-.448c-.292-.187-.557-.357-.786-.507a1.411,1.411,0,0,0-.754-.32,3.762,3.762,0,0,0-1.391.252,3.342,3.342,0,0,0-1.09.685,4.3,4.3,0,0,0-.758.989,6.057,6.057,0,0,0-.5,1.142,9.614,9.614,0,0,0-.3,1.224,11.384,11.384,0,0,0-.156,1.218c-.026.368-.039.751-.039,1.138a3.2,3.2,0,0,0,.95,2.42,3.42,3.42,0,0,0,2.448.893h9.276a3.42,3.42,0,0,0,2.448-.893,3.2,3.2,0,0,0,.95-2.42c0-.388-.013-.771-.039-1.138Zm-1.69,2.74a2.3,2.3,0,0,1-1.67.582H3.4a2.3,2.3,0,0,1-1.67-.582,2.089,2.089,0,0,1-.6-1.6c0-.361.012-.717.036-1.06a10.267,10.267,0,0,1,.141-1.1,8.479,8.479,0,0,1,.263-1.079,4.931,4.931,0,0,1,.409-.928,3.19,3.19,0,0,1,.558-.731,2.219,2.219,0,0,1,.725-.451,2.6,2.6,0,0,1,.889-.172c.04.021.11.061.224.136.232.151.5.324.8.513a5.593,5.593,0,0,0,1.276.57,5.075,5.075,0,0,0,3.181,0,5.6,5.6,0,0,0,1.277-.571c.3-.193.563-.361.795-.512.114-.074.184-.115.224-.136a2.6,2.6,0,0,1,.889.172,2.222,2.222,0,0,1,.725.451,3.182,3.182,0,0,1,.558.731,4.913,4.913,0,0,1,.41.928,8.459,8.459,0,0,1,.263,1.079,10.354,10.354,0,0,1,.141,1.1h0c.024.341.036.7.036,1.059a2.089,2.089,0,0,1-.6,1.6Zm0,0" transform="translate(0 -238.01)" fill="#ea3a3c" stroke="#fff" stroke-width="0.3"/>
  </g>
</svg>
